<?xml version="1.0" encoding="UTF-8" standalone="no"?><!DOCTYPE svg PUBLIC "-//W3C//DTD SVG 1.1//EN" "http://www.w3.org/Graphics/SVG/1.1/DTD/svg11.dtd"><svg width="100%" height="100%" viewBox="0 0 955 947" version="1.1" xmlns="http://www.w3.org/2000/svg" xmlns:xlink="http://www.w3.org/1999/xlink" xml:space="preserve" xmlns:serif="http://www.serif.com/" style="fill-rule:evenodd;clip-rule:evenodd;stroke-linejoin:round;stroke-miterlimit:2;"><g id="Ebene-1" serif:id="Ebene 1"><path d="M294.383,688.835l-0,85.209c-0,7.5 -6.3,13.5 -13.804,13.5c-7.496,-0 -13.5,-6 -13.5,-13.5l-0,-82.209c-0,-22.8 -9.6,-36.6 -33,-36.6c-21.604,0 -37.204,13.8 -49.204,28.8l-0,90.009c-0,7.5 -6.3,13.5 -13.805,13.5c-7.5,-0 -13.5,-6 -13.5,-13.5l0,-128.709c0,-7.804 6,-13.804 13.5,-13.804c7.505,0 13.805,6 13.805,13.804l-0,12.3c12.6,-13.804 29.1,-27.604 55.804,-27.604c34.2,0 53.704,26.7 53.704,58.804" style="fill:#222223;fill-rule:nonzero;"/><path d="M433.276,742.543l0,-25.205l-32.704,0c-28.2,0 -45.304,6.6 -45.304,23.705c-0,12.895 7.504,24 31.804,24c18.6,-0 36.004,-10.8 46.204,-22.5m27.304,-53.405l0,84.909c0,7.495 -6.3,13.5 -13.804,13.5c-7.5,-0 -13.5,-6.005 -13.5,-13.5l0,-7.804c-10.8,11.104 -28.204,22.799 -56.404,22.799c-26.104,0 -48.904,-16.799 -48.904,-45.004c-0,-28.2 22.2,-48.604 69.008,-48.604l36.3,0l0,-2.4c0,-26.7 -13.2,-37.204 -40.2,-37.204c-16.804,0 -28.804,3.604 -39.908,7.204c-1.2,0.3 -2.7,0.6 -3.9,0.6c-6,0 -11.1,-4.8 -11.1,-11.404c-0,-5.096 2.7,-9.296 7.8,-11.396c14.104,-6.004 30.604,-10.804 51.904,-10.804c43.804,0 62.708,29.704 62.708,59.108" style="fill:#222223;fill-rule:nonzero;"/><path d="M623.775,709.238c0,-39.605 -26.7,-54.305 -49.5,-54.305c-23.104,0 -49.508,14.7 -49.508,54.304c0,39.905 26.404,54.905 49.508,54.905c22.8,-0 49.5,-15 49.5,-54.904m27.305,0.299c-0,47.405 -30.6,79.505 -76.805,79.505c-46.508,-0 -76.808,-32.1 -76.808,-79.505c0,-47.404 30.3,-79.508 76.808,-79.508c46.205,0 76.805,32.104 76.805,79.509" style="fill:#222223;fill-rule:nonzero;"/><path d="M797.473,744.642c0,24.3 -19.504,44.4 -57.904,44.4c-21.904,0 -39.304,-5.096 -54.608,-13.5c-3,-2.1 -5.1,-5.7 -5.1,-9.9c-0,-6 4.804,-12 11.704,-12c1.8,0 3.296,0.296 5.396,1.2c10.804,4.8 23.104,9 40.804,9c23.104,0 33.304,-7.8 33.304,-21.3c0,-25.804 -90.008,-10.5 -90.008,-65.108c-0,-27 19.504,-47.404 58.508,-47.404c16.496,-0 31.204,3 43.5,7.5c5.704,1.804 8.7,6.9 8.7,11.4c0,6.304 -5.1,12.004 -11.996,12.004c-1.504,-0 -2.7,-0.3 -3.908,-0.6c-9.592,-3 -20.996,-5.4 -34.2,-5.4c-22.204,-0 -34.5,9 -34.5,21c0,31.204 90.308,9.904 90.308,68.708" style="fill:#222223;fill-rule:nonzero;"/><path d="M611.674,275.117l0,170.4c0,14.996 -12.596,26.996 -27.6,26.996c-15,-0 -27,-12 -27,-26.996l0,-164.4c0,-45.596 -19.196,-73.196 -66,-73.196c-43.196,0 -74.396,27.6 -98.396,57.596l0,180c0,14.996 -12.6,26.996 -27.6,26.996c-15,-0 -27,-12 -27,-26.996l0,-257.396c0,-15.604 12,-27.6 27,-27.6c15,0 27.6,11.996 27.6,27.6l0,24.596c25.2,-27.6 58.2,-55.196 111.596,-55.196c68.4,0 107.4,53.396 107.4,117.596" style="fill:#3dc9b3;fill-rule:nonzero;"/></g></svg>